<?xml version="1.0" encoding="utf-8" ?>
<svg baseProfile="full" height="100%" version="1.1" width="100%" xmlns="http://www.w3.org/2000/svg" xmlns:ev="http://www.w3.org/2001/xml-events" xmlns:xlink="http://www.w3.org/1999/xlink"><defs /><text font-family="monospace" font-size="1em" x="12" y="42.0">Jane Doe is a software engineer.
</text><rect fill="none" height="12.0" rx="3px" ry="3px" stroke="red" stroke-width="1" width="62.400000000000006" x="12.0" y="31.0" /><text fill="red" font-family="monospace" font-size="0.5em" x="12.0" y="30.0">PERSON</text><rect fill="none" height="18.0" rx="3px" ry="3px" stroke="red" stroke-width="1" width="200%" x="12.0" y="25.0" /><text fill="red" font-family="monospace" font-size="0.5em" x="12.0" y="24.0">*</text><rect fill="none" height="24.0" rx="3px" ry="3px" stroke="red" stroke-width="1" width="132.59999999999997" x="121.2" y="19.0" /><text fill="red" font-family="monospace" font-size="0.5em" x="121.2" y="18.0">OCCUPATION</text><rect fill="none" height="24.0" rx="3px" ry="3px" stroke="red" stroke-width="1" width="200%" x="253.79999999999998" y="19.0" /><text fill="red" font-family="monospace" font-size="0.5em" x="253.79999999999998" y="18.0">MULTILINE</text><rect fill="none" height="30.0" rx="3px" ry="3px" stroke="red" stroke-width="1" width="200%" x="253.79999999999998" y="13.0" /><text fill="red" font-family="monospace" font-size="0.5em" x="253.79999999999998" y="12.0">MULTILINE</text><text font-family="monospace" font-size="1em" x="12" y="90.0">She works at Acme.
</text><rect fill="none" height="18.0" rx="3px" ry="3px" stroke="red" stroke-width="1" width="200%" x="-3" y="73.0" /><text fill="red" font-family="monospace" font-size="0.5em" x="0" y="72.0">⋯*</text><rect fill="none" height="24.0" rx="3px" ry="3px" stroke="red" stroke-width="1" width="22.8" x="-3" y="67.0" /><text fill="red" font-family="monospace" font-size="0.5em" x="0" y="66.0">⋯MULTILINE</text><rect fill="none" height="30.0" rx="3px" ry="3px" stroke="red" stroke-width="1" width="38.4" x="-3" y="61.0" /><text fill="red" font-family="monospace" font-size="0.5em" x="0" y="60.0">⋯MULTILINE</text><rect fill="none" height="36.0" rx="3px" ry="3px" stroke="red" stroke-width="1" width="23.4" x="12.0" y="55.0" /><text fill="red" font-family="monospace" font-size="0.5em" x="12.0" y="54.0">PERSON</text><rect fill="none" height="12.0" rx="3px" ry="3px" stroke="red" stroke-width="1" width="31.200000000000003" x="113.39999999999999" y="79.0" /><text fill="red" font-family="monospace" font-size="0.5em" x="113.39999999999999" y="78.0">ORGANIZATION</text><text font-family="monospace" font-size="1em" x="12" y="138.0">‍🧙‍♀️✨ emojis!
</text><rect fill="none" height="18.0" rx="3px" ry="3px" stroke="red" stroke-width="1" width="100.8" x="-3" y="121.0" /><text fill="red" font-family="monospace" font-size="0.5em" x="0" y="120.0">⋯*</text><rect fill="none" height="24.0" rx="3px" ry="3px" stroke="red" stroke-width="1" width="15.600000000000001" x="12.0" y="115.0" /><text fill="red" font-family="monospace" font-size="0.5em" x="12.0" y="114.0">EMOJI</text><rect fill="none" height="30.0" rx="3px" ry="3px" stroke="red" stroke-width="1" width="31.200000000000003" x="12.0" y="109.0" /><text fill="red" font-family="monospace" font-size="0.5em" x="12.0" y="108.0">EMOJIS</text><rect fill="none" height="36.0" rx="3px" ry="3px" stroke="red" stroke-width="1" width="15.600000000000001" x="27.6" y="103.0" /><text fill="red" font-family="monospace" font-size="0.5em" x="27.6" y="102.0">EMOJI</text><text font-family="monospace" font-size="1em" x="12" y="174.0">Portsmouth, NH</text><rect fill="none" height="12.0" rx="3px" ry="3px" stroke="red" stroke-width="1" width="78.0" x="12.0" y="163.0" /><text fill="red" font-family="monospace" font-size="0.5em" x="12.0" y="162.0">CITY</text><rect fill="none" height="18.0" rx="3px" ry="3px" stroke="red" stroke-width="1" width="109.2" x="12.0" y="157.0" /><text fill="red" font-family="monospace" font-size="0.5em" x="12.0" y="156.0">LOCATION</text><rect fill="none" height="24.0" rx="3px" ry="3px" stroke="red" stroke-width="1" width="31.200000000000003" x="90.0" y="151.0" /><text fill="red" font-family="monospace" font-size="0.5em" x="90.0" y="150.0">STATE</text></svg>